<svg width="397" height="397" viewBox="0 0 397 397" fill="none" xmlns="http://www.w3.org/2000/svg">
<path d="M338.861 58.1393C372.281 91.5596 392.68 135.808 396.388 182.926C400.096 230.044 386.871 276.938 359.09 315.175C331.309 353.412 290.797 380.482 244.839 391.515C198.881 402.549 150.495 396.822 108.383 375.365C66.2709 353.908 33.1969 318.128 15.1099 274.463C-2.97703 230.797 -4.88994 182.11 9.71527 137.16C24.3205 92.2099 54.4853 53.9461 94.784 29.2509C135.083 4.55585 182.871 -4.94977 229.552 2.44386L198.5 198.5L338.861 58.1393Z" fill="white"/>
<circle cx="198.5" cy="198.499" r="169.093" fill="#313131"/>
<path d="M297.271 99.7271C320.789 123.245 335.143 154.383 337.753 187.54C340.362 220.697 331.055 253.697 311.506 280.604C291.957 307.512 263.448 326.561 231.107 334.325C198.767 342.089 164.717 338.059 135.083 322.96C105.448 307.86 82.1739 282.682 69.446 251.955C56.7182 221.227 55.372 186.966 65.6498 155.334C75.9275 123.703 97.1546 96.7764 125.513 79.3983C153.871 62.0203 187.5 55.3312 220.35 60.5341L198.498 198.499L297.271 99.7271Z" fill="white"/>
<circle cx="198.5" cy="198.499" r="115.179" fill="#313131"/>
<circle cx="198.503" cy="198.505" r="41.6605" fill="white"/>
<circle cx="355.339" cy="301.425" r="26.9568" fill="white"/>
<circle cx="124.981" cy="95.5731" r="26.9568" fill="white"/>
</svg>
