<svg width="21" height="21" viewBox="0 0 21 21" fill="none" xmlns="http://www.w3.org/2000/svg">
<path d="M17.9246 3.07538C19.6924 4.8432 20.7715 7.1838 20.9676 9.67618C21.1638 12.1686 20.4642 14.6491 18.9947 16.6717C17.5252 18.6944 15.3822 20.1263 12.9512 20.7099C10.5202 21.2935 7.96069 20.9906 5.7331 19.8556C3.50551 18.7206 1.75601 16.828 0.799266 14.5182C-0.157475 12.2084 -0.258662 9.63304 0.513906 7.25532C1.28647 4.8776 2.88209 2.85357 5.01376 1.54728C7.14543 0.240989 9.67326 -0.261826 12.1426 0.129272L10.5 10.5L17.9246 3.07538Z" fill="white"/>
<circle cx="10.5" cy="10.5" r="8.94444" fill="#629FE7"/>
<path d="M15.7246 5.27524C16.9686 6.51926 17.7279 8.16635 17.866 9.92024C18.004 11.6741 17.5117 13.4197 16.4776 14.843C15.4435 16.2664 13.9355 17.274 12.2248 17.6847C10.514 18.0954 8.71293 17.8822 7.14537 17.0835C5.5778 16.2848 4.34667 14.953 3.67341 13.3276C3.00015 11.7022 2.92894 9.88989 3.4726 8.21668C4.01626 6.54347 5.1391 5.11915 6.63916 4.19991C8.13923 3.28067 9.91807 2.92684 11.6557 3.20205L10.4998 10.5L15.7246 5.27524Z" fill="white"/>
<circle cx="10.5001" cy="10.5" r="6.09259" fill="#629FE7"/>
<circle cx="10.5002" cy="10.5002" r="2.2037" fill="white"/>
<circle cx="18.7963" cy="15.9444" r="1.42593" fill="white"/>
<circle cx="6.61111" cy="5.0555" r="1.42593" fill="white"/>
</svg>
