<svg width="459" height="638" viewBox="0 0 459 638" fill="none" xmlns="http://www.w3.org/2000/svg">
<path d="M349 327H108L226.635 627L349 327Z" fill="#629FE7" stroke="white" stroke-width="8"/>
<path d="M113.455 285.046C109.081 280.595 106.654 274.588 106.708 268.346L107.423 186.447C107.477 180.206 110.009 174.242 114.461 169.867L172.878 112.461C177.329 108.086 183.336 105.659 189.578 105.714L271.477 106.429C277.718 106.483 283.682 109.015 288.057 113.466L345.463 171.883C349.838 176.335 352.265 182.342 352.21 188.583L351.495 270.483C351.441 276.724 348.909 282.688 344.458 287.062L286.041 344.469C281.589 348.843 275.582 351.27 269.341 351.216L187.441 350.501C181.2 350.447 175.236 347.915 170.862 343.463L113.455 285.046Z" fill="#629FE7"/>
<path d="M72.797 302.15C68.4224 297.699 65.9953 291.692 66.0498 285.451L67.0558 170.176C67.1102 163.935 69.6417 157.971 74.0934 153.597L156.316 72.797C160.768 68.4224 166.775 65.9953 173.016 66.0498L288.29 67.0558C294.531 67.1102 300.495 69.6417 304.87 74.0934L385.669 156.316C390.044 160.768 392.471 166.775 392.417 173.016L391.411 288.29C391.356 294.531 388.825 300.495 384.373 304.87L302.15 385.669C297.699 390.044 291.692 392.471 285.451 392.417L170.176 391.411C163.935 391.356 157.971 388.825 153.597 384.373L72.797 302.15Z" fill="#629FE7" stroke="white" stroke-width="8"/>
<path d="M158.478 299.128C139.859 280.181 129.529 254.614 129.761 228.051C129.993 201.488 140.767 176.105 159.714 157.486C178.661 138.867 204.228 128.538 230.791 128.769C257.353 129.001 282.736 139.776 301.355 158.722C319.974 177.669 330.304 203.236 330.072 229.799C329.84 256.362 319.066 281.745 300.119 300.364C281.172 318.983 255.605 329.312 229.043 329.08C202.48 328.849 177.097 318.074 158.478 299.128Z" fill="#629FE7"/>
<circle cx="230.848" cy="228.854" r="97.727" fill="#629FE7"/>
<circle cx="230.848" cy="228.854" r="83.2489" fill="#629FE7"/>
<path d="M297.825 157.623C314.278 174.077 324.321 195.862 326.147 219.059C327.973 242.256 321.461 265.344 307.784 284.169C294.107 302.994 274.161 316.321 251.535 321.753C228.909 327.185 205.087 324.366 184.354 313.802C163.621 303.238 147.338 285.623 138.433 264.125C129.529 242.627 128.587 218.658 135.777 196.527C142.968 174.397 157.819 155.559 177.659 143.401C197.499 131.243 221.026 126.563 244.009 130.203L228.721 226.727L297.825 157.623Z" fill="white"/>
<circle cx="228.721" cy="226.727" r="83.2489" fill="#629FE7"/>
<path d="M277.349 178.098C288.927 189.676 295.995 205.006 297.279 221.33C298.564 237.655 293.982 253.901 284.357 267.149C274.732 280.396 260.697 289.774 244.775 293.597C228.853 297.419 212.089 295.435 197.499 288.001C182.909 280.568 171.451 268.172 165.184 253.044C158.918 237.916 158.255 221.048 163.315 205.475C168.375 189.902 178.826 176.645 192.788 168.089C206.749 159.534 223.306 156.24 239.479 158.802L228.72 226.726L277.349 178.098Z" fill="white"/>
<circle cx="228.721" cy="226.726" r="56.7058" fill="#629FE7"/>
<circle cx="228.723" cy="226.729" r="20.5106" fill="white"/>
<circle cx="305.938" cy="277.4" r="13.2716" fill="white"/>
<circle cx="192.526" cy="176.053" r="13.2716" fill="white"/>
<path d="M112.5 326.5H345L311 409L140 397.5L112.5 326.5Z" fill="#629FE7"/>
</svg>
